<svg xmlns="http://www.w3.org/2000/svg" width="155.44" height="154.88" viewBox="0 0 155.44 154.88">
  <defs>
    <style>
      .\33 2b46e90-ab43-4a4d-9fe7-bdf7d9a40f6c, .eeda09c3-3e42-4c78-a0af-a9874325151a {
        fill: #123274;
      }

      .\33 2b46e90-ab43-4a4d-9fe7-bdf7d9a40f6c {
        fill-rule: evenodd;
      }
    </style>
  </defs>
  <title>Asset 5</title>
  <g id="0554d88a-de07-4004-ac0e-030a9c94a331" data-name="Layer 2">
    <g id="b8034f44-8d48-4336-9ba6-e17a7b5e929d" data-name="Layer 3">
      <g>
        <g>
          <path class="32b46e90-ab43-4a4d-9fe7-bdf7d9a40f6c" d="M70.54,45.81l.08-.36c.11,0,.28,0,.32.1a4,4,0,0,1,.43.91c.15.52.23,1.07.35,1.6a7.89,7.89,0,0,0,1.11,2.72,2.4,2.4,0,0,0,2.31,1.16,6.83,6.83,0,0,1,.77-.06,7.49,7.49,0,0,1,1.16.13c.26.06.56.16.59.6-.19,0-.37.12-.56.15a4.2,4.2,0,0,0-2.26,1.13,5.34,5.34,0,0,1-1.18.88,3.15,3.15,0,0,0-1.58,1.94c-.23.82-.44,1.65-.64,2.49C71,61,70.55,62.88,70.1,64.72c-.06.26-.13.53-.22.88a4.59,4.59,0,0,0,.56-.1,24.17,24.17,0,0,1,6.48-1.21,8,8,0,0,0,1.82-.36,6.48,6.48,0,0,1,4.78-.2.61.61,0,0,0,.23,0s.08-.06.17-.12c-.14-.45-.55-.59-.92-.72a4.48,4.48,0,0,0-2.91-.12A32,32,0,0,1,74.23,64c-.64.09-1.27.28-1.91.39a1.56,1.56,0,0,1-1.35-.2c.32-1.21.64-2.4,1-3.64a.78.78,0,0,1,.31,0,8.53,8.53,0,0,0,4.22.41,9.15,9.15,0,0,0,1.16-.13,7.82,7.82,0,0,1,3,.1c.52.13.67.08.82-.42a6.29,6.29,0,0,0,.2-1.37,5.36,5.36,0,0,0-.08-.92c.81-.16,1.64.18,2.4-.22-.14-.3-.4-.22-.61-.22a6.35,6.35,0,0,1-3.92-1.51,3.51,3.51,0,0,1-.55-.54c-.35-.43-.33-.6,0-1,.15-.21.25-.45.38-.66a1.94,1.94,0,0,1,.63-.65c0-.12,0-.25,0-.36a.52.52,0,0,1,.31-.7c.4-.15.47-.4.32-.8-.25-.66-.23-.69.44-.82a2.77,2.77,0,0,0,2.17-1.57,2.39,2.39,0,0,1,.86-.87,13.2,13.2,0,0,1,1.8-.91,1.48,1.48,0,0,1,1.79.31.67.67,0,0,0,.19.14l.18,0a.44.44,0,0,0,.18-.69c-.39-.66-1-.53-1.64-.31a.85.85,0,0,1,.47-.77,2.59,2.59,0,0,1,3.34.39c.43.48.82,1,1.24,1.51-.29.39-.68-.07-1.11.18a11,11,0,0,0,1.17.51,2.67,2.67,0,0,1,2.13,2.47,1.22,1.22,0,0,0,.31.69c.72.7.6,1.53.49,2.46-.72-.35-.49-1.3-1.19-1.58.14.64.24,1.28.43,1.89a1.63,1.63,0,0,0,.51.76,3.72,3.72,0,0,1,1.15,4.1,5.49,5.49,0,0,1-7.33,3.94,2.08,2.08,0,0,1-.32-.17c.11-.2.2-.4.27-.53l-2.26-1.35a2.06,2.06,0,0,0,.1.37,10.92,10.92,0,0,1,1,7.49q-.57,3.3-.94,6.63c-.14,1.2-.11,2.43-.13,3.65a4.66,4.66,0,0,0,1,2.82c.56.78,1.14,1.55,1.7,2.33a7.66,7.66,0,0,1,1.31,2.89,5,5,0,0,1-3.28,5.91,11.63,11.63,0,0,1-5.23.54c-2.58-.28-5.14-.67-7.72-1a1.34,1.34,0,0,1-1-.56,14.51,14.51,0,0,0-2.85-2.74A5.34,5.34,0,0,0,66,88.74a3.87,3.87,0,0,0-.7.2c.16.09.2.13.24.13a6.59,6.59,0,0,1,4.68,2.18,22.92,22.92,0,0,1,2.92,3.53c1.11,1.63,2.2,3.28,3.3,4.92a11.72,11.72,0,0,0,.74,1,2.34,2.34,0,0,0,1.61.85c.31,0,.62.07.93.1a1.37,1.37,0,0,1,1.23,1,5.08,5.08,0,0,1,.19,1.22,10.83,10.83,0,0,1-.1,1.71,3.3,3.3,0,0,0,.19,1.68,3.81,3.81,0,0,1,0,3.17c-.3.69-.47,1.43-.74,2.14A1.43,1.43,0,0,1,79,113.68c-.52,0-.69-.16-.71-.7,0-.7,0-1.4,0-2.1a3.89,3.89,0,0,0-.45-1.95,30.59,30.59,0,0,1-2.06-5,3.59,3.59,0,0,0-1.16-1.71,107.36,107.36,0,0,0-9.7-7.17c-1.27-.86-2.57-1.68-3.83-2.55A25.37,25.37,0,0,1,59,90.94a5.37,5.37,0,0,1-.91-1A2.29,2.29,0,0,1,58,87a5.46,5.46,0,0,1,1.71-1.57,10.63,10.63,0,0,1,4.46-1.52,48.66,48.66,0,0,1,10-.07c2.36.18,4.7.47,7,.71a4.1,4.1,0,0,0,.86,0,3.06,3.06,0,0,0,.89-.22c.29-.12.6-.34.48-.7s-.47-.19-.74-.15a4.35,4.35,0,0,1-1,.08c-2-.14-4.08-.31-6.21-.47a1.38,1.38,0,0,1-.1-.48,4.62,4.62,0,0,1,.2-1.45c1-2.4.39-4.59-.77-6.72-.25-.46-.57-.87-.8-1.33a22.37,22.37,0,0,1-1-2.05A5,5,0,0,1,72.87,70a4.25,4.25,0,0,1,.59-.15c1.56-.23,3.14-.43,4.7-.68a5.3,5.3,0,0,1,3.63.4,1.76,1.76,0,0,0,.39.06,1.66,1.66,0,0,0-.1-.53,1.9,1.9,0,0,0-1.7-.93,21.19,21.19,0,0,0-2.64.21,47.68,47.68,0,0,1-7.35.74c-.93,0-1.86-.11-2.79-.21a4.28,4.28,0,0,1-1-.25c-1.26-.43-1.43-.71-1.16-2a31.8,31.8,0,0,1,2.78-7.91c.45-.9.91-1.8,1.4-2.69A3.75,3.75,0,0,0,70,53.15c-.3-1.13-.55-2.27-.83-3.4a1.48,1.48,0,0,1,.09-1.34,1.21,1.21,0,0,0,.07-.61,9.65,9.65,0,0,0-.06-1.32c0-.35.09-.52.42-.56,0-.39-.07-.73-.1-1.07l.18-.08a6,6,0,0,1,.4.48c.13.18.25.36.37.55a5.53,5.53,0,0,0,.38,2.75ZM86.91,52A6.22,6.22,0,0,1,88,52.4a1.42,1.42,0,0,1,.56,1.52A3.76,3.76,0,0,0,89.44,57a2.52,2.52,0,0,1,.44.9,2.19,2.19,0,0,1-.63,2.28,2,2,0,0,1-2.13.24c-.12-.05-.2-.18-.34-.31l.83-.35-2.11-.54s-.06.11,0,.14a1.39,1.39,0,0,0,.16.35,3.1,3.1,0,0,0,3.24,1.18A2.24,2.24,0,0,0,89.92,57a3.59,3.59,0,0,1-.52-.58A2.33,2.33,0,0,1,89,54.19a2.61,2.61,0,0,0,.17-.83A1.5,1.5,0,0,0,86.91,52Zm3.2,1.14c0,.67,0,1.28,0,1.89a2.8,2.8,0,0,0,1,2.48c.33.29.68.57,1,.89a1.8,1.8,0,0,1,.35,2.26,2.61,2.61,0,0,0-.08.37,1.12,1.12,0,0,0,1.2-.39c-.41-.16-.43-.43-.43-.8a2.5,2.5,0,0,0-.32-1.25,5.36,5.36,0,0,0-1-1.24,2.55,2.55,0,0,1-.89-2c0-.38,0-.78,0-1.16A1,1,0,0,0,90.11,53.11Zm4.11,5.26A2.16,2.16,0,0,0,93.61,56a4.47,4.47,0,0,1-1.39-2.61c0-.26-.15-.51-.22-.76a8.4,8.4,0,0,0-.13,1.78,2.77,2.77,0,0,0,.82,2A5.32,5.32,0,0,1,94.22,58.37Zm-1.83,4.06c-.76,0-1.41.31-2-.17.06-.21.11-.39.19-.65l-1.73.22A2.74,2.74,0,0,0,92.39,62.43Zm-4-13.6a1.59,1.59,0,0,0-.7,1.37c.45,0,.89.06,1.31.14s.85.22,1.27.34l.07-.18a12.38,12.38,0,0,0-1.14-.6C88.47,49.59,88.47,49.6,88.39,48.83Zm-1.72,8.85c.86.23,1.27,0,1.23-.71,0-.47-.13-.94-.21-1.48a1.36,1.36,0,0,0-.55,1.28C87.15,57.13,87.16,57.49,86.67,57.68Zm-1.94-6.86.17-.13c-.23-.52-.25-1.19-1.17-1.32Zm-.64.73-.58-1.13C83,51.18,83,51.21,84.09,51.55Z"/>
          <path class="32b46e90-ab43-4a4d-9fe7-bdf7d9a40f6c" d="M85.84,107.16c-.16-.33-.29-.57-.39-.83a23.86,23.86,0,0,1-1.28-4.4,19.6,19.6,0,0,0-.76-2.85,7.24,7.24,0,0,0-1-1.67,1.15,1.15,0,0,0-1.05-.52,1.33,1.33,0,0,0,.14.38,7,7,0,0,1,1.6,3.33c.27,1.13.44,2.3.77,3.41s.82,2.41,1.27,3.59a1.51,1.51,0,0,0,.8,1c.12-.14.24-.27.34-.4a7.23,7.23,0,0,1,.44-.64c.67-.79,1-.8,1.76-.08.45.43.92.84,1.34,1.29s.48.93-.1,1.37a4.78,4.78,0,0,1-2.67,1c-1.55.09-3.11.07-4.66.09a1.69,1.69,0,0,1-.36-.11c.07-.27.13-.52.21-.75a4,4,0,0,0-.11-3.11,4.34,4.34,0,0,1-.26-2,14.44,14.44,0,0,0-.07-2.79,1.64,1.64,0,0,0-1.94-1.59,3.13,3.13,0,0,1-3.14-1.84c-.33-.52-.63-1.07-1-1.6-.65-1-1.32-2-2-3-.1-.15-.18-.29-.35-.59l1,.13c2,.28,4.11.6,6.17.82a17.26,17.26,0,0,0,5.27-.21,5.45,5.45,0,0,0,4.64-5.44c0-.15,0-.3.07-.52a3.93,3.93,0,0,1,.6.24c2.09,1.2,4.19,2.39,6.28,3.61a12.24,12.24,0,0,1,1.44,1,2.27,2.27,0,0,1,.54.66A.72.72,0,0,1,99,95.24a4.78,4.78,0,0,1-1.46.1c-.88-.08-1.75-.25-2.62-.38a8.75,8.75,0,0,0-3,0,4.79,4.79,0,0,1-.57,0c-.34-.73-.66-1.44-1-2.21a.64.64,0,0,0-.24.78c.17.63.33,1.26.53,1.87s.28.61.87.43a8.2,8.2,0,0,1,2.92-.31,1.16,1.16,0,0,1,1,.58,8.19,8.19,0,0,1,.6,1.18c.21.6.08.87-.52,1.08s-1.44.42-2.16.63c-.95.28-1.9.54-2.83.85a4.6,4.6,0,0,0-1.1.57,9.39,9.39,0,0,0-.92.84c-.14-1-.24-2-.4-2.9a6.36,6.36,0,0,0-.91-2.62l-.21,0c0,.21,0,.43,0,.64.27,1.87.61,3.74.78,5.62a2.09,2.09,0,0,0,1.49,2,10.61,10.61,0,0,0,4,.48l0-.15a4.22,4.22,0,0,0-.45-.18c-.88-.22-1.77-.4-2.65-.64-.55-.15-1.1-.41-1.21-1.07s.41-1,.88-1.35a8.34,8.34,0,0,1,3.19-1.19.72.72,0,0,1,.76.25,12.31,12.31,0,0,1,2.3,3.58,2.38,2.38,0,0,1,.11.38c.19.78,0,1.19-.82,1.39a10.39,10.39,0,0,1-3.1.13c-1.08,0-2.17-.07-3.26-.06a3.63,3.63,0,0,0-2.9,1.27A2.18,2.18,0,0,1,85.84,107.16Z"/>
          <path class="32b46e90-ab43-4a4d-9fe7-bdf7d9a40f6c" d="M45.88,38.8a2.63,2.63,0,0,0-.41.21c-.28.19-.54.42-.82.6a8.21,8.21,0,0,0-3.07,3.2,5.63,5.63,0,0,1-.94,1.24,1.55,1.55,0,0,1-1.63.47c-1.45-.39-2.91-.75-4.37-1.12-1.07-.27-1.31-.15-1.9.88a3,3,0,0,0,.34.37Q34.8,46,36.55,47.3c.58.44.65.42,1.16-.11.14-.15.28-.31.43-.45s.09,0,.14,0a28.43,28.43,0,0,1-3.42,4.58c-.08-.34.16-.54.29-.76a.49.49,0,0,0-.13-.69c-.16-.13-.32-.26-.49-.38L26.6,43.4c-.79-.6-.79-.6-1.52.06a.32.32,0,0,1-.31.06,3.78,3.78,0,0,1,.26-.43c1.19-1.57,2.35-3.17,3.6-4.7a7.71,7.71,0,0,1,1.73-1.54,3,3,0,0,1,4.61,3,10.67,10.67,0,0,1-.34,1.35c-.05.19-.13.38-.25.71l.77-.48A2.92,2.92,0,0,1,37.38,41c1.14.26,2.28.5,3.42.75.86.18,1,.12,1.38-.69a9.14,9.14,0,0,1,.62-1,1.16,1.16,0,0,0,0-1.5c-2-2.59-3.88-5.2-5.83-7.8-.47-.63-.54-.62-1.2-.22a1.76,1.76,0,0,1-1,.45c.19-.17.37-.33.57-.48L38,28.47c.61-.45.62-.45,1.3,0l6.29,3.89.84.47c-.11-.4-.16-.63-.23-.86-.75-2.3-1.5-4.59-2.24-6.89-.27-.82-.27-.82.43-1.34L46.78,22a.57.57,0,0,1,.21-.05c0,.31-.26.43-.42.59a.55.55,0,0,0-.08.82c.11.14.21.29.32.44l6,8,.28.38a.55.55,0,0,0,.86.18,1.31,1.31,0,0,1,.64-.21c-1.35,1.16-2.77,2.21-4.3,3.32,0-.42.25-.54.41-.69a.55.55,0,0,0,.06-.83c-.09-.12-.18-.25-.28-.37l-5.16-6.94a3.18,3.18,0,0,0-.6-.62,16.15,16.15,0,0,0,.77,2.68c.3.94.63,1.87.94,2.81s.61,1.82.91,2.73.61,1.81.91,2.72c-.35.23-.55,0-.75-.12-1.25-.74-2.49-1.5-3.73-2.25l-5.47-3.3-.9-.51a4.65,4.65,0,0,0,.32.6q2.61,3.54,5.25,7.07c.53.7.73.75,1.6.47l1.16-.35C45.76,38.61,45.82,38.71,45.88,38.8ZM32.46,44.19c.35-.49.63-.85.87-1.23a1.82,1.82,0,0,0,0-2.12,5.51,5.51,0,0,0-2.85-2.18,1.86,1.86,0,0,0-1.9.33,3.54,3.54,0,0,0-1.06,1.4Z"/>
          <path class="32b46e90-ab43-4a4d-9fe7-bdf7d9a40f6c" d="M73.86,109.84a8.13,8.13,0,0,1-2.58-1.53c-.93-.85-1.8-1.78-2.69-2.68-.5-.5-1-1-1.47-1.5A4.8,4.8,0,0,0,65,103.07a2.1,2.1,0,0,0-2.1.47,1.1,1.1,0,0,1-.25.17h-.18a6.69,6.69,0,0,1-.22-.75c-.24-1.51-.46-3-.7-4.53a2,2,0,0,0-.36-1.27,7.54,7.54,0,0,0-.45,2.78,1.21,1.21,0,0,1-.39-.08,11.48,11.48,0,0,1-3.79-3.17,4.88,4.88,0,0,1-1-3.51,1.55,1.55,0,0,1,.39-1.09,1.76,1.76,0,0,1,.38.24,41.47,41.47,0,0,0,5.16,4q4.89,3.33,9.82,6.59a3.69,3.69,0,0,1,1.77,2.6c.19,1.15.5,2.28.75,3.42A8.26,8.26,0,0,1,73.86,109.84Z"/>
          <path class="32b46e90-ab43-4a4d-9fe7-bdf7d9a40f6c" d="M81.19,26.29l.43,0c.74,0,.76,0,.9-.75L84.41,15.1c.11-.62.06-.68-.54-.9a1,1,0,0,1-.46-.31,1.7,1.7,0,0,1,.39,0c1.94.34,3.87.7,5.81,1l.46.11a6.42,6.42,0,0,1-2.55,12.57c-2-.3-4-.7-6-1.06a2.14,2.14,0,0,1-.39-.16Zm4,.74a19.86,19.86,0,0,0,2.21.26,3.48,3.48,0,0,0,2.91-1.68,9.68,9.68,0,0,0,1.46-4,9,9,0,0,0,0-3.79,4,4,0,0,0-4.37-2.92C86.7,18.88,86,22.88,85.22,27Z"/>
          <path class="32b46e90-ab43-4a4d-9fe7-bdf7d9a40f6c" d="M58.83,140.88a2.35,2.35,0,0,1,.21-.13c1.11,0,1.12,0,1.34-1.07l2.07-9.75c0-.1,0-.2.06-.3.09-.58.05-.65-.5-.87a1,1,0,0,1-.48-.31,2.57,2.57,0,0,1,.48,0l5.93,1.27c.13,0,.25.08.37.12,4.85,1.62,5.29,6,3.81,9.07a5.81,5.81,0,0,1-5,3.4,8.53,8.53,0,0,1-2.31-.13c-1.76-.32-3.51-.71-5.26-1.08C59.36,141.05,59.15,141,58.83,140.88Zm6.68-11.29-2.53,12c.53.12,1,.23,1.42.31a3.46,3.46,0,0,0,3.72-1.54,9.92,9.92,0,0,0,1-2,10.51,10.51,0,0,0,.77-3.71,8.45,8.45,0,0,0-.28-2.46A3.91,3.91,0,0,0,65.51,129.59Z"/>
          <path class="32b46e90-ab43-4a4d-9fe7-bdf7d9a40f6c" d="M134.33,60.63c3.72,0,6.47,2.95,6.48,6.91,0,3-2.05,6.44-6.81,6.49-3.58,0-6.41-2.68-6.47-6.92C127.48,63.39,130.42,60.63,134.33,60.63Zm-2,10.57A16.73,16.73,0,0,0,137.73,70a7.09,7.09,0,0,0,1.88-1.2,2.87,2.87,0,0,0-.8-4.73,5.08,5.08,0,0,0-1.63-.46,13.53,13.53,0,0,0-6.76,1,6,6,0,0,0-1.33.79,2.91,2.91,0,0,0-1.23,2.92A2.85,2.85,0,0,0,130,70.75,20.9,20.9,0,0,0,132.34,71.2Z"/>
          <path class="32b46e90-ab43-4a4d-9fe7-bdf7d9a40f6c" d="M68.21,39.94c.1.67.1.67-.56,1.78.18-.13.36-.24.52-.37s.33-.3.54-.49c.3.53-.09.82-.35,1.28l.83-.47a.47.47,0,0,1,0,.76c-1,.83-.85,1.88-.62,2.94a4.55,4.55,0,0,1-.31,3.18,7.3,7.3,0,0,0-.63,3c-.14,2-.26,4.09-.36,6.14a8.28,8.28,0,0,0,.09,1,1.46,1.46,0,0,1-.06.51c-.35,1-.74,2-1.07,3a.66.66,0,0,1-.66.53,3.93,3.93,0,0,1-2.39-.54,1.09,1.09,0,0,1-.6-1.16A16,16,0,0,1,62.94,59c.91-3.08,1.8-6.17,2.8-9.23a7.91,7.91,0,0,0,.32-4.51,5.3,5.3,0,0,1,.7-3.66A7.62,7.62,0,0,1,68.21,39.94Z"/>
          <path class="32b46e90-ab43-4a4d-9fe7-bdf7d9a40f6c" d="M104.1,130.35a23.84,23.84,0,0,1,2.58.62,3.16,3.16,0,0,1,2.15,3.48,3.56,3.56,0,0,1-.61,1.57,5.83,5.83,0,0,1-5.26,2.44,2.64,2.64,0,0,1-2.34-3.69,7.38,7.38,0,0,1,.78-1.32,6.74,6.74,0,0,1,.43-.53l-.5-.14a9.26,9.26,0,0,1-.9-.26,3.45,3.45,0,0,1-2.4-2.71,3.4,3.4,0,0,1,1.4-3.34,4.85,4.85,0,0,1,2.46-1.08,3.28,3.28,0,0,1,2,.33,2.46,2.46,0,0,1,.91,3.7C104.62,129.74,104.37,130,104.1,130.35Zm-1.63,2.58a1.35,1.35,0,0,0-.12.36,4.86,4.86,0,0,0,1.24,3.72,2.71,2.71,0,0,0,1.18.69,1.66,1.66,0,0,0,2.1-1.22,2.92,2.92,0,0,0-1.25-3A6.19,6.19,0,0,0,102.47,132.93Zm1-2.52a2.06,2.06,0,0,0,.09-.41,5.35,5.35,0,0,0-1.19-3.46,1.47,1.47,0,0,0-1.88-.47,1.53,1.53,0,0,0-.74,1.79C100.09,129.55,101.43,130.5,103.46,130.41Z"/>
          <path class="32b46e90-ab43-4a4d-9fe7-bdf7d9a40f6c" d="M58.29,85.71l-.57.74a3.16,3.16,0,0,0-.21,3.84,6.76,6.76,0,0,0,1.87,2c1,.7,1.94,1.38,2.92,2.06,3.38,2.32,6.76,4.63,10.13,7a16.18,16.18,0,0,1,1.5,1.24,4.86,4.86,0,0,1,1.35,2.15,20.91,20.91,0,0,0,2.09,4.68,2.31,2.31,0,0,1,0,2.43.8.8,0,0,1-.27.37,10.79,10.79,0,0,1-1.65.86c-.64.24-.94-.07-.84-.74,0-.18.09-.35.13-.53a6,6,0,0,0,0-3.07c-.34-1.2-.64-2.41-.91-3.63A4,4,0,0,0,72,102.41c-3.69-2.4-7.35-4.86-11-7.33-1.14-.77-2.21-1.64-3.3-2.47-.21-.16-.41-.33-.6-.5a3.93,3.93,0,0,1,.65-6.22A3.06,3.06,0,0,1,58.29,85.71Z"/>
          <path class="32b46e90-ab43-4a4d-9fe7-bdf7d9a40f6c" d="M74.15,17.94l-.43-.6c-.37-.53-.73-1.07-1.13-1.58a4.68,4.68,0,0,0-.76-.78,2,2,0,0,0-2.76.11,2.1,2.1,0,0,0,.11,2.77,3.63,3.63,0,0,0,1.07.75,11.25,11.25,0,0,0,1.68.61,6.93,6.93,0,0,1,2.29,1.14,3.71,3.71,0,0,1-.52,6.39,6.59,6.59,0,0,1-5.65.34.79.79,0,0,1-.59-.55c-.2-.86-.42-1.72-.62-2.58,0-.06,0-.14.06-.38.24.3.4.51.58.71.67.79,1.32,1.6,2,2.33a2.24,2.24,0,0,0,2.09.59A2.17,2.17,0,0,0,73.29,24,2.54,2.54,0,0,0,72,22.7a10.79,10.79,0,0,0-1.66-.65,8,8,0,0,1-2.85-1.38,3.41,3.41,0,0,1,.36-5.58,4.51,4.51,0,0,1,1.26-.58,6.73,6.73,0,0,1,4.14.08,1,1,0,0,1,.81,1c0,.77.18,1.53.28,2.29Z"/>
          <path class="32b46e90-ab43-4a4d-9fe7-bdf7d9a40f6c" d="M22.77,47c1.09.43,2,.85,2.92,1.28a2,2,0,0,1,0,.24c-.34,0-.69.08-1,.1-.57,0-1.14,0-1.71.08a.81.81,0,0,0-.79.4c-.46,1-.91,2-1.35,3a35.45,35.45,0,0,0,5.37,2.46,2.71,2.71,0,0,0,.69-1.42,1.07,1.07,0,0,0-.25-.69c-.25-.36-.56-.68-.84-1-.1-.13-.16-.28-.27-.46a13.89,13.89,0,0,1,4.19,1.89,13.14,13.14,0,0,1-1.58.11,1.12,1.12,0,0,0-1.28.87c-.09.29-.21.57-.36.94L32,57.27a4.69,4.69,0,0,0,.33-.49c.37-.82.72-1.66,1.11-2.48a1.14,1.14,0,0,0-.1-1.24c-.44-.61-.85-1.25-1.26-1.88-.11-.18-.21-.38-.34-.63a8.13,8.13,0,0,1,2.87,1.59l-3.95,9-.2,0a5.63,5.63,0,0,1,.14-.59.59.59,0,0,0-.39-.81,3.89,3.89,0,0,1-.42-.19l-9.12-4-.43-.19a.56.56,0,0,0-.84.26,1.21,1.21,0,0,1-.45.48C20.09,53,21.5,50.09,22.77,47Z"/>
          <path class="32b46e90-ab43-4a4d-9fe7-bdf7d9a40f6c" d="M58.69,131.42c0-.46,0-.73-.06-1-.1-1-.14-1.92-.33-2.85a1.82,1.82,0,0,0-1.47-1.45,2,2,0,0,0-2.32,2.38,4,4,0,0,0,.58,1.34c.36.54.81,1,1.21,1.52a5.28,5.28,0,0,1,1.41,3.45,3.61,3.61,0,0,1-3.53,3.63,6.57,6.57,0,0,1-5.52-2.68.94.94,0,0,1-.17-1c.3-.82.56-1.66.83-2.48h.17a3.47,3.47,0,0,1,.13.46c.1.84.16,1.7.31,2.54a4.86,4.86,0,0,0,.47,1.39,2.35,2.35,0,0,0,2.41,1.25,2.22,2.22,0,0,0,1.92-2.12,2.71,2.71,0,0,0-.39-1.72c-.29-.46-.65-.87-1-1.31a19.82,19.82,0,0,1-1.47-2.1,3.48,3.48,0,0,1,3.8-5.13,6.37,6.37,0,0,1,4.14,2.55A.82.82,0,0,1,60,129c-.31.63-.58,1.28-.89,1.91A3.17,3.17,0,0,1,58.69,131.42Z"/>
          <path class="32b46e90-ab43-4a4d-9fe7-bdf7d9a40f6c" d="M126.52,51.44c-.18.24-.38.47-.55.73a29.62,29.62,0,0,0-1.59,2.57,2.29,2.29,0,0,0,.41,2.67A2,2,0,0,0,127,58a2.63,2.63,0,0,0,1.82-2,15.11,15.11,0,0,0,.18-1.78,16,16,0,0,1,.36-2.6,3.43,3.43,0,0,1,6-1.33A6.27,6.27,0,0,1,137,55.19c0,.21-.12.52-.27.59-.83.42-1.68.77-2.53,1.14l-.11-.13a2.74,2.74,0,0,1,.21-.42c.44-.54.91-1.07,1.33-1.63a5.12,5.12,0,0,0,.64-1.14,2,2,0,0,0-.8-2.52,2,2,0,0,0-2.57.64,2.7,2.7,0,0,0-.5,1.12,14.48,14.48,0,0,0-.18,2.08,6.94,6.94,0,0,1-.6,2.8,3.69,3.69,0,0,1-6.05,1.09,6.6,6.6,0,0,1-2-5.36,1,1,0,0,1,.57-.93c.62-.33,1.21-.7,1.82-1a2.82,2.82,0,0,1,.48-.19Z"/>
          <path class="32b46e90-ab43-4a4d-9fe7-bdf7d9a40f6c" d="M78.92,131.09V137c.57,0,1.06,0,1.54,0a.72.72,0,0,0,.62-.51c.19-.4.37-.8.57-1.2.08-.15.19-.28.3-.45a13.6,13.6,0,0,1,.09,4.58c-.23-.41-.43-.72-.6-1.05-.63-1.23-.88-1.36-2.26-1.1a.54.54,0,0,0-.13.07,36,36,0,0,0,.06,6,5.22,5.22,0,0,0,.57.07c.89,0,1.77,0,2.65,0a1.09,1.09,0,0,0,1.07-.62c.38-.65.78-1.28,1.18-1.92a1.59,1.59,0,0,1,.48-.49,13.57,13.57,0,0,1-.21,3.17l-9.89.2,0-.21.69-.14a.48.48,0,0,0,.46-.53c0-.2,0-.41,0-.62q-.08-5-.17-10V132c0-.67-.07-.71-.77-.83l-.54-.08a1.1,1.1,0,0,1,.92-.22c1.45,0,2.9,0,4.36-.06l3.58-.09h1V134c-.17-.18-.32-.27-.39-.4-.36-.66-.73-1.32-1.06-2a1,1,0,0,0-1-.62c-.8,0-1.61,0-2.41,0C79.33,131,79.13,131.06,78.92,131.09Z"/>
          <path class="32b46e90-ab43-4a4d-9fe7-bdf7d9a40f6c" d="M45.39,126.74l-1.3-.68c-1.19,1.63-2.34,3.27-3.54,4.95.38.29.68.53,1,.75.57.41,1.15.81,1.71,1.23a1.05,1.05,0,0,0,1.15.14c.71-.32,1.44-.6,2.17-.88a1.44,1.44,0,0,1,.67-.1,23.86,23.86,0,0,1-2.07,2.46L37,128.82l.09-.17.58.26c.5.24.56.23.91-.21.08-.11.16-.21.23-.32l5.83-8.18.22-.32c.31-.48.31-.57-.12-1a2.54,2.54,0,0,0-.42-.26l.11-.21s0,0,.07,0c.22.13.44.25.65.4l7.3,5.22c-.6.91-1.22,1.75-1.83,2.59l-.17-.06a2.58,2.58,0,0,1,0-.48c.1-.72.18-1.44.32-2.15a1,1,0,0,0-.47-1.2c-.83-.57-1.64-1.16-2.55-1.81l-3.44,4.83,1.08,1Z"/>
          <path class="32b46e90-ab43-4a4d-9fe7-bdf7d9a40f6c" d="M99,31.08a8.18,8.18,0,0,1-.88-.27c-1-.45-2-.92-3-1.38-.16-.07-.31-.17-.46-.25l0-.15c.2,0,.4.08.6.14a.56.56,0,0,0,.8-.38c0-.14.13-.28.19-.42q2.07-4.59,4.13-9.16c0-.1.09-.19.13-.29.22-.56.2-.62-.28-1l-.56-.41a84.25,84.25,0,0,1,9,3.93,8.5,8.5,0,0,1-1.34,2.94c-.06-.31-.12-.55-.14-.78q-.06-1-.09-2.1a.84.84,0,0,0-.49-.82l-2.88-1.3a27.16,27.16,0,0,0-2.52,5.46c.42.18.85.39,1.3.57a.74.74,0,0,0,.78-.19l1-.85a3.92,3.92,0,0,1,.47-.27,13.28,13.28,0,0,1-1.9,4.16c0-.45-.08-.83-.09-1.2,0-1.36-.32-1.69-1.85-1.95l-2.44,5.4.52.54Z"/>
          <path class="32b46e90-ab43-4a4d-9fe7-bdf7d9a40f6c" d="M67.08,27.69l-5,1.86L62,29.4l.44-.32c.49-.32.53-.45.16-.91-.7-.87-1.43-1.72-2.13-2.58a.56.56,0,0,0-.68-.22l-2.85,1.05a.55.55,0,0,0-.37.61c.06.86.08,1.71.16,2.57.06.65.25.8.9.82H59A11.58,11.58,0,0,1,54.77,32c.37-.33.63-.6.92-.83a1.91,1.91,0,0,0,.76-1.77c-.25-3.52-.46-7-.69-10.56-.06-.81-.06-.81.73-1.1s.85-.32,1.43.35q3.69,4.28,7.36,8.56c.47.56.93,1.06,1.79.79C67.07,27.54,67.08,27.61,67.08,27.69ZM59.9,25c-1.22-1.47-2.39-2.89-3.67-4.26a51.88,51.88,0,0,0,.25,5.46A11.08,11.08,0,0,0,59.9,25Z"/>
          <path class="32b46e90-ab43-4a4d-9fe7-bdf7d9a40f6c" d="M29.74,64.29a23,23,0,0,1-1.12,5.25c0-.25,0-.42,0-.58,0-.64,0-.69-.66-.82-2.48-.52-5-1-7.47-1.53L17,65.93a2.46,2.46,0,0,0-.42,0,11.93,11.93,0,0,0-.3,1.65,1,1,0,0,0,.38.7c.5.45,1.05.85,1.57,1.27.2.16.38.33.6.53a6.74,6.74,0,0,1-3.2-.53c.69-3.44,1.39-6.91,2.11-10.44a21.39,21.39,0,0,1,3.13.64c0,.06,0,.12,0,.18-.23.08-.46.18-.69.25l-1.95.54a.94.94,0,0,0-.79.84c-.06.44-.15.86-.24,1.38.3.08.54.15.79.2l10.29,2.08c.87.18.87.17,1.18-.63a2.34,2.34,0,0,1,.15-.27Z"/>
          <path class="32b46e90-ab43-4a4d-9fe7-bdf7d9a40f6c" d="M125.13,34.38a23,23,0,0,1,3.35,4.54c-.23-.21-.38-.32-.52-.45-.46-.46-.49-.47-1-.07-2,1.45-4,2.9-6,4.38A8.07,8.07,0,0,0,119.72,44a2.67,2.67,0,0,0-.63,2.95,3.41,3.41,0,0,0,2.75,2.26,3.71,3.71,0,0,0,2.13-.32,9.84,9.84,0,0,0,1.55-.88c1.59-1.13,3.15-2.29,4.72-3.45.76-.56.81-.72.52-1.64-.11-.38-.21-.76-.35-1.26a17.1,17.1,0,0,1,2.77,3.61c-.35.13-.54-.15-.75-.29-1.24-.8-1.24-.81-2.45.08l-4.4,3.22a6.33,6.33,0,0,1-2.29,1.11,3.78,3.78,0,0,1-3.39-.69A6.48,6.48,0,0,1,117.53,45a4,4,0,0,1,.79-3.59,9.63,9.63,0,0,1,1.58-1.48c1.66-1.26,3.34-2.47,5-3.7l.44-.32a.52.52,0,0,0,.16-.75C125.4,35,125.3,34.72,125.13,34.38Z"/>
          <path class="32b46e90-ab43-4a4d-9fe7-bdf7d9a40f6c" d="M122.54,123.63l1-1,2-2.06c.58-.6.57-.6.13-1.31a4.52,4.52,0,0,1-.23-.45,9.16,9.16,0,0,1,2.38,2.48l-5.87,6-.16-.07a3.37,3.37,0,0,1,0-.55,13.69,13.69,0,0,0-.11-5.26,8.92,8.92,0,0,0-3.41-5.24,5.11,5.11,0,0,0-1.35-.75,1.45,1.45,0,0,0-2,1.65c0,.34.12.66.17,1a3.18,3.18,0,0,1,.06.62.74.74,0,0,1-.69.79.77.77,0,0,1-.86-.63,2.2,2.2,0,0,1,.09-1.14,6.35,6.35,0,0,1,3.73-3.64,3.44,3.44,0,0,1,3.73.88,5.69,5.69,0,0,1,1.64,3.77,14.21,14.21,0,0,1-.35,4.26c0,.19-.07.39-.11.59Z"/>
          <path class="32b46e90-ab43-4a4d-9fe7-bdf7d9a40f6c" d="M111.92,39.49c-.31-.23-.64-.43-.93-.68l-2.82-2.45a.86.86,0,0,1-.27-.47l.44.22c.59.36.62.36,1.1-.16l.21-.24,6.55-7.5.3-.36a.55.55,0,0,0,0-.88,2,2,0,0,1-.35-.5,3.78,3.78,0,0,1,1.39,1c.48.39.94.81,1.4,1.23l1.31,1.17-.11.15-.61-.37a.53.53,0,0,0-.77.09c-.1.11-.2.23-.31.34L111.55,38c-.15.17-.27.36-.42.55.28.35.53.66.77,1Z"/>
          <path class="32b46e90-ab43-4a4d-9fe7-bdf7d9a40f6c" d="M29.5,121a6.48,6.48,0,0,1-.62-.54c-.88-1-1.74-1.93-2.6-2.9a1.23,1.23,0,0,1-.34-.65l1,.69a7.54,7.54,0,0,0,.61-.47l7.76-6.87.23-.21a.55.55,0,0,0,.12-.87,6.38,6.38,0,0,1-.41-.63c.19.06.3.06.35.11.89,1,1.76,2,2.64,3a1.51,1.51,0,0,1,.14.34h0c-.41-.24-.66.06-.93.29-2.71,2.4-5.41,4.81-8.13,7.2a4.5,4.5,0,0,1-.56.37l.73,1.19Z"/>
          <path class="32b46e90-ab43-4a4d-9fe7-bdf7d9a40f6c" d="M68.86,44.6A1.19,1.19,0,0,1,69,43.3a6.54,6.54,0,0,0,.56-.74,2.82,2.82,0,0,0,.25-.81c.06-.29-.13-.42-.36-.59s-.14-1,.36-1.47a2.65,2.65,0,0,1,.42.4q4.56,6.25,9.09,12.53a1.48,1.48,0,0,1,.17.33,2.44,2.44,0,0,1-2.49.24c.34-.12.57-.19.79-.28.46-.2.54-.58.16-.9a1.74,1.74,0,0,0-.76-.37,17.09,17.09,0,0,0-2.46-.25,1.53,1.53,0,0,1-1.65-1c-.29-.8-.51-1.63-.74-2.45-.18-.65-.31-1.31-.51-1.95a1.49,1.49,0,0,0-1.22-1.18,1.17,1.17,0,0,1-.34-.16C69.55,44.16,69.55,44.16,68.86,44.6Z"/>
          <path class="32b46e90-ab43-4a4d-9fe7-bdf7d9a40f6c" d="M89.65,130.6l4-2.11c.12.39.22.65.29.92l2.76,10c0,.08,0,.15.07.23.27,1,.27,1,1.27.79a2.13,2.13,0,0,1,.76,0,57.92,57.92,0,0,1-5.91,1.73l-.06-.17c.25-.1.5-.21.76-.3.9-.32.91-.35.65-1.3l-2.13-7.8-.42-1.5c-.26-.94-.29-.95-1.22-.56-.23.1-.46.18-.7.27Z"/>
          <path class="32b46e90-ab43-4a4d-9fe7-bdf7d9a40f6c" d="M38.37,112a7.14,7.14,0,0,1,2.87,6.85,6.81,6.81,0,0,1-5.5,5.08,6.5,6.5,0,0,1-6.22-2.76s0-.1,0-.15v0a.84.84,0,0,1,.27.13,3.74,3.74,0,0,0,4.58.64,11.32,11.32,0,0,0,4.89-4.32,3.72,3.72,0,0,0-.33-4.75c-.19-.24-.34-.5-.52-.75Z"/>
          <path class="32b46e90-ab43-4a4d-9fe7-bdf7d9a40f6c" d="M108.93,127.07c.43-.24.77-.45,1.13-.63.9-.45,1.79-.93,2.72-1.31a5.67,5.67,0,0,1,1.6-.3,3.48,3.48,0,0,1,3.52,4.65,4.63,4.63,0,0,1-.58,1.18,6.94,6.94,0,0,1-3.71,2.67,2.78,2.78,0,0,1-1.15.09.87.87,0,0,1-.78-1c.07-.48.48-.72,1.06-.6.33.07.65.19,1,.27a5.63,5.63,0,0,0,.91.18,1.54,1.54,0,0,0,1.69-1.83,5.23,5.23,0,0,0-3-4,3.54,3.54,0,0,0-3.15.23c-.28.13-.53.32-.82.44C109.24,127.19,109.1,127.1,108.93,127.07Z"/>
          <path class="32b46e90-ab43-4a4d-9fe7-bdf7d9a40f6c" d="M106.22,123l5.24-3.73,1.21,1.69c-1.63,1.33-3.37,2.39-5,3.69.14.24.24.44.35.63a1,1,0,0,1,.19.6Z"/>
          <path class="32b46e90-ab43-4a4d-9fe7-bdf7d9a40f6c" d="M132.7,94.37A1.74,1.74,0,0,1,131,92.65a1.76,1.76,0,0,1,1.72-1.75,1.74,1.74,0,1,1,0,3.47Z"/>
          <path class="32b46e90-ab43-4a4d-9fe7-bdf7d9a40f6c" d="M22.15,87.21A1.74,1.74,0,1,1,23.85,89,1.73,1.73,0,0,1,22.15,87.21Z"/>
          <path class="32b46e90-ab43-4a4d-9fe7-bdf7d9a40f6c" d="M99,31.1a6,6,0,0,1,.73.19c.57.24,1.14.49,1.7.77a1.12,1.12,0,0,0,1.24-.09c.61-.43,1.25-.83,1.89-1.24a7,7,0,0,1,.63-.34,8.73,8.73,0,0,1-1.6,2.86c-.24-.1-.5-.19-.75-.31q-1.69-.77-3.39-1.56a4.27,4.27,0,0,1-.44-.3Z"/>
          <path class="32b46e90-ab43-4a4d-9fe7-bdf7d9a40f6c" d="M115.1,42.42l-1.89-1.68.06-.16c.58.62,1.18.36,1.8.17s1.53-.44,2.34-.67A6.75,6.75,0,0,1,115.1,42.42Z"/>
          <path class="32b46e90-ab43-4a4d-9fe7-bdf7d9a40f6c" d="M45.38,126.76a1.79,1.79,0,0,0,1.32-.3c.39-.24.81-.43,1.3-.68,0,.67-.46,1-.7,1.38s-.56.81-.85,1.2a7.13,7.13,0,0,1-.92,1.19l-.18-.07c.06-.47.1-.95.2-1.41a1.85,1.85,0,0,0-.15-1.33Z"/>
          <path class="32b46e90-ab43-4a4d-9fe7-bdf7d9a40f6c" d="M111.9,39.51l1.08.73-.11.15a2.82,2.82,0,0,1-1-.9Z"/>
        </g>
        <g>
          <path class="eeda09c3-3e42-4c78-a0af-a9874325151a" d="M154.45,79.89A4.39,4.39,0,0,1,154,76a2.2,2.2,0,0,0,0-1.32c-.75-2.69-.73-5.5-1.16-8.24a11.35,11.35,0,0,0-.5-2,17.52,17.52,0,0,1-.93-4.16,6,6,0,0,0-.59-2.23,27,27,0,0,1-1.24-4.1,11.75,11.75,0,0,0-.49-1.81c-1.41-3-2.87-6-4.29-9a13.73,13.73,0,0,1-.54-1.52,4.2,4.2,0,0,0-.33-1q-2.8-4.23-5.66-8.42c-1-1.4-2.42-2.4-3.08-4a1.28,1.28,0,0,0-.56-.57,13.06,13.06,0,0,1-4.17-4.1,35.75,35.75,0,0,0-7.19-7.24,3.75,3.75,0,0,1-1-.87c-.19-.32-.67-.72-.25-1.15.07-.07.59.28.88.46,1.29.8,2.56,1.65,3.87,2.42a48.44,48.44,0,0,1,9.59,7.77,19.82,19.82,0,0,1,1.81,2.35c2,2.72,4.16,5.4,6.12,8.19a34.63,34.63,0,0,1,2.94,5.12,75.62,75.62,0,0,1,3.35,7.93c.48,1.45,1.29,2.79,1.69,4.25.8,3,1.41,6,2.13,8.93a28.69,28.69,0,0,1,.51,4.53c.15,1.76-.11,3.55.37,5.3a2.22,2.22,0,0,1-.16,1.28,3.81,3.81,0,0,0-.06,2.89,4,4,0,0,1-.75,4.23Z"/>
          <path class="eeda09c3-3e42-4c78-a0af-a9874325151a" d="M.25,75.75a17.88,17.88,0,0,1,.14-6.68c.73-3.34,1.32-6.7,1.87-10.07a29,29,0,0,1,2.59-8.18,15.51,15.51,0,0,0,.83-2.55A38.4,38.4,0,0,1,9.3,40.5a15.77,15.77,0,0,0,1-1.92A11.47,11.47,0,0,1,13,34.94c.14-.15.61-.23.7-.13a2.54,2.54,0,0,1,.43.89c0,.06,0,.17-.07.24-.91,1.65-1.78,3.31-2.74,4.93A11.16,11.16,0,0,1,9.68,43a4.31,4.31,0,0,0-1.21,2.34,12.61,12.61,0,0,1-.74,2.57,53.89,53.89,0,0,1-2.55,5.94C4,55.93,3.8,58.23,3.27,60.47a5.78,5.78,0,0,1-.63,2.3,2.25,2.25,0,0,0-.27,1.3c.09,2.87-.79,5.68-.52,8.57a7.07,7.07,0,0,1-.2,2.14,1.23,1.23,0,0,1-1.42,1Z"/>
          <path class="eeda09c3-3e42-4c78-a0af-a9874325151a" d="M.23,75.75a6.46,6.46,0,0,1,1.24,6.08,3.54,3.54,0,0,0,.21,2.33,16.23,16.23,0,0,1,.75,4.2,26.75,26.75,0,0,0,1.51,7.86,50,50,0,0,1,1.7,6.5c.08.34,0,.8.23,1a8.76,8.76,0,0,1,1.58,3.08,44.71,44.71,0,0,0,3.07,6.25c.62,1,.22,1.45-.09,2.15l.08-.08A14.85,14.85,0,0,1,7.58,110c-.89-2.44-1.92-4.81-3-7.18-.59-1.31-1-2.71-1.42-4.07C2.05,95.43,1.62,92,.84,88.56,0,84.93.33,81.23.06,77.57a9.37,9.37,0,0,1,.2-1.81Z"/>
          <path class="eeda09c3-3e42-4c78-a0af-a9874325151a" d="M154.93,87.09a8.46,8.46,0,0,1-.37,3.18c-.44,1.32-.45,2.74-1.21,4-.38.64-.22,1.58-.4,2.36a15.23,15.23,0,0,1-.88,3.07c-.25.54,0,1.54-1.06,1.58a7.92,7.92,0,0,1-.27-2.08,15.17,15.17,0,0,1,.85-3.39,13.21,13.21,0,0,0,.68-2.84c.5-3.18,1.12-6.34,1.7-9.51a1.63,1.63,0,0,1,.27-.45c.16.19.42.37.44.57C154.8,84.76,154.85,85.93,154.93,87.09Z"/>
          <path class="eeda09c3-3e42-4c78-a0af-a9874325151a" d="M24.42,22.84c0,.89-.08,1.19-1,1.31s-1.4.43-1.56,1.44a4.22,4.22,0,0,1-1.69,2.66,13.11,13.11,0,0,0-2.72,2.94,5.59,5.59,0,0,1-1.27,1.38,2.2,2.2,0,0,1-2,.54c-.42-.14-.13-1.06.53-1.88s1.41-1.83,2.13-2.73a6.45,6.45,0,0,1,1.24-1.4c1.92-1.32,3-3.5,5.08-4.67C23.93,22.05,24.39,22.2,24.42,22.84Z"/>
          <path class="eeda09c3-3e42-4c78-a0af-a9874325151a" d="M10.43,115.21a1.93,1.93,0,0,1,2.48,1,72.75,72.75,0,0,1,3.94,7.59,2,2,0,0,1,.06.5,3,3,0,0,1-.4-.2,14.55,14.55,0,0,1-3.92-4.69c-.46-.87-1-1.68-1.48-2.56a12.75,12.75,0,0,1-.6-1.74Z"/>
          <path class="eeda09c3-3e42-4c78-a0af-a9874325151a" d="M34.51,142c0-.16-.06-.39-.17-.46-1.44-.92-2.69-2.09-4-3.1s-2.12-2.17-3.41-3c-.39-.24-.4-.84-.1-.89a1,1,0,0,1,.75.09,22.82,22.82,0,0,1,2.73,2.55,6.22,6.22,0,0,0,2.79,2c1.44.48,1.64,1.47,1.44,2.74Z"/>
          <path class="eeda09c3-3e42-4c78-a0af-a9874325151a" d="M31.56,16.37c-.47.71-.8,1.8-1.48,2.08a31.29,31.29,0,0,0-2.82,1.46.41.41,0,0,1-.27,0,1.23,1.23,0,0,1-.49-.16.44.44,0,0,1,0-.41,11.49,11.49,0,0,0,1.82-1.95C29,16.25,30,16.17,31.08,16,31.18,16,31.32,16.16,31.56,16.37Z"/>
          <path class="eeda09c3-3e42-4c78-a0af-a9874325151a" d="M150.24,105.19c-.45,1.08-.93,2.3-1.47,3.5s-1.1,1.66-1.37,1.32c-.51-.62,0-1.22.18-1.74a39.58,39.58,0,0,1,1.72-3.6c.1-.2.42-.28.64-.41C150,104.5,150.09,104.73,150.24,105.19Z"/>
          <path class="eeda09c3-3e42-4c78-a0af-a9874325151a" d="M99.76,2.93c.68.22,1.79.54,2.86,1,.23.09.34.57.42.89a1.07,1.07,0,0,1-.62.3,7.92,7.92,0,0,1-3.86-1,.78.78,0,0,1-.34-.63c0-.17.32-.33.53-.43A3.69,3.69,0,0,1,99.76,2.93Z"/>
          <path class="eeda09c3-3e42-4c78-a0af-a9874325151a" d="M33,15.37c-.15-.08-.36-.12-.43-.25s0-.33,0-.49a.33.33,0,0,1,.17-.2c1.29-.59,2.29-1.61,3.51-2.31.25-.13.64,0,1,0,0,.32,0,.8-.16.93-1.16.82-2.37,1.57-3.57,2.32C33.4,15.42,33.18,15.36,33,15.37Z"/>
          <path class="eeda09c3-3e42-4c78-a0af-a9874325151a" d="M34.5,142a3.18,3.18,0,0,1,3.06.23c.59.38,1.3.59,1.92.93.79.44,1.25,1.36.91,1.35a3.88,3.88,0,0,1-1.3-.53c-1.12-.53-2.23-1.07-3.36-1.58a12.43,12.43,0,0,0-1.22-.4Z"/>
          <path class="eeda09c3-3e42-4c78-a0af-a9874325151a" d="M20.1,128.05a3.57,3.57,0,0,1,.39-.51.27.27,0,0,1,.26,0c.9,1,1.81,1.93,2.69,2.93.14.17.11.49.17.75-.32,0-.71.07-.94-.09a5.81,5.81,0,0,1-2.26-2.22A8,8,0,0,1,20.1,128.05Z"/>
          <path class="eeda09c3-3e42-4c78-a0af-a9874325151a" d="M55.27,151c-1.7-.37-3.41-.73-5.11-1.14-.18,0-.3-.34-.45-.52a3.13,3.13,0,0,1,.78-.56,1,1,0,0,1,.77.08,14.15,14.15,0,0,0,3.65,1.54c.14,0,.2.42.3.65Z"/>
          <path class="eeda09c3-3e42-4c78-a0af-a9874325151a" d="M80.8,1.52c-.66-.16-1.1-.24-1.51-.38A.52.52,0,0,1,79.06.7c0-.16.12-.4.25-.44A3.94,3.94,0,0,1,80.57,0c1.37,0,2.3.49,2,.75A9.06,9.06,0,0,1,80.8,1.52Z"/>
          <path class="eeda09c3-3e42-4c78-a0af-a9874325151a" d="M47,147.93c-.15.08-.34.26-.43.22-1.06-.44-2.11-.9-3.14-1.41-.13-.07-.16-.44-.14-.67,0-.08.35-.24.44-.19,1.08.58,2.14,1.19,3.19,1.8C47,147.72,47,147.85,47,147.93Z"/>
          <path class="eeda09c3-3e42-4c78-a0af-a9874325151a" d="M70.37.4c.2,0,.55.08.9.15.08,0,.21.11.2.14s-.07.38-.18.44a3.72,3.72,0,0,1-1,.36c-.59.13-1.22.35-1.73-.21,0,0,0-.18.06-.25C69,.32,69.6.38,70.37.4Z"/>
          <path class="eeda09c3-3e42-4c78-a0af-a9874325151a" d="M78.66,154.88c-.29-.4-.64-.68-.61-.9a1.07,1.07,0,0,1,.63-.69c.41-.15.92.39.78.8C79.37,154.35,79,154.53,78.66,154.88Z"/>
          <path class="eeda09c3-3e42-4c78-a0af-a9874325151a" d="M96.4,2.65a.78.78,0,0,1-.12.22c0,.06-.15.15-.21.13a10.18,10.18,0,0,1-1.21-.42.89.89,0,0,1,0-.4,7.71,7.71,0,0,1,1.27,0C96.26,2.23,96.32,2.5,96.4,2.65Z"/>
          <path class="eeda09c3-3e42-4c78-a0af-a9874325151a" d="M74.55.88c-.16.19-.25.37-.37.41-.35.11-.85-.3-.69-.54a.52.52,0,0,1,.44-.19A2.16,2.16,0,0,1,74.55.88Z"/>
          <path class="eeda09c3-3e42-4c78-a0af-a9874325151a" d="M69.05,153.43l-.28.36a1.68,1.68,0,0,1-.37-.33s.18-.29.25-.28A1.46,1.46,0,0,1,69.05,153.43Z"/>
          <path class="eeda09c3-3e42-4c78-a0af-a9874325151a" d="M91.94,1.53a3.24,3.24,0,0,1,.63.26c.12.08.16.27.23.41-.15.06-.31.18-.43.15A1.83,1.83,0,0,1,91.71,2c-.07-.05-.06-.24,0-.36S91.8,1.58,91.94,1.53Z"/>
          <path class="eeda09c3-3e42-4c78-a0af-a9874325151a" d="M84.72.5,85,.77l-.54.28-.2-.4Z"/>
          <path class="eeda09c3-3e42-4c78-a0af-a9874325151a" d="M62.25,2.17c-.11.21-.18.47-.27.47a2.43,2.43,0,0,1-.67-.14c.06-.13.1-.38.18-.39A3.42,3.42,0,0,1,62.25,2.17Z"/>
          <path class="eeda09c3-3e42-4c78-a0af-a9874325151a" d="M142.21,119.91l-.21-.42.54-.26c0,.15.13.34.08.45S142.35,119.84,142.21,119.91Z"/>
          <path class="eeda09c3-3e42-4c78-a0af-a9874325151a" d="M17.7,125.39l.44.43c-.13.07-.28.21-.41.2s-.28-.18-.41-.27C17.43,125.65,17.53,125.54,17.7,125.39Z"/>
          <path class="eeda09c3-3e42-4c78-a0af-a9874325151a" d="M55.21,151a1.9,1.9,0,0,1,.53,0c.11,0,.19.15.28.23a.72.72,0,0,1-.26,0c-.17-.07-.32-.17-.48-.25Z"/>
          <path class="eeda09c3-3e42-4c78-a0af-a9874325151a" d="M143.92,116.44c.07.13.21.27.21.39s-.15.25-.23.37c-.08-.12-.22-.25-.21-.38S143.83,116.57,143.92,116.44Z"/>
          <path class="eeda09c3-3e42-4c78-a0af-a9874325151a" d="M39.72,10.7l-.56.4S39.06,11,39,11a4.29,4.29,0,0,1,.55-.31c.06,0,.16.07.24.1Z"/>
          <path class="eeda09c3-3e42-4c78-a0af-a9874325151a" d="M43.58,8.8c0,.06-.12.17-.15.16a2,2,0,0,1-.37-.16,3.17,3.17,0,0,1,.38-.17S43.53,8.74,43.58,8.8Z"/>
          <polygon class="eeda09c3-3e42-4c78-a0af-a9874325151a" points="67.57 1.48 67.52 1.28 67.69 1.31 67.57 1.48"/>
          <path class="eeda09c3-3e42-4c78-a0af-a9874325151a" d="M88.67,1.34h-.25l.28.13Z"/>
          <path class="eeda09c3-3e42-4c78-a0af-a9874325151a" d="M88.7,1.46l-.16-.1.13,0S88.7,1.46,88.7,1.46Z"/>
          <path class="eeda09c3-3e42-4c78-a0af-a9874325151a" d="M39.79,10.75a.75.75,0,0,1,0-.16.3.3,0,0,1,0,.1Z"/>
          <polygon class="eeda09c3-3e42-4c78-a0af-a9874325151a" points="104.4 5.63 104.33 5.46 104.5 5.48 104.4 5.63"/>
          <path class="eeda09c3-3e42-4c78-a0af-a9874325151a" d="M154.38,79.84l.06.12,0-.06Z"/>
        </g>
      </g>
    </g>
  </g>
</svg>
